<?xml version="1.0" standalone="no"?><!DOCTYPE svg PUBLIC "-//W3C//DTD SVG 1.1//EN" "http://www.w3.org/Graphics/SVG/1.1/DTD/svg11.dtd"><svg t="1532438147560" class="icon" style="" viewBox="0 0 1024 1024" version="1.1" xmlns="http://www.w3.org/2000/svg" p-id="2402" xmlns:xlink="http://www.w3.org/1999/xlink" width="200" height="200"><defs><style type="text/css"></style></defs><path d="M984.53504 316.48768a513.22368 513.22368 0 0 0-110.91968-166.00064 513.24928 513.24928 0 0 0-166.00576-110.91968A513.26976 513.26976 0 0 0 511.7952 0.6144a513.28 513.28 0 0 0-195.81952 38.95296 513.2288 513.2288 0 0 0-166.00064 110.91968A513.24416 513.24416 0 0 0 39.05536 316.48768 513.28 513.28 0 0 0 0.1024 512.31232a513.28 513.28 0 0 0 38.95296 195.8144 513.23904 513.23904 0 0 0 110.91968 166.00064 513.24416 513.24416 0 0 0 166.00576 110.9248A513.31584 513.31584 0 0 0 511.7952 1024c66.97472 0 133.93408-13.31712 195.8144-38.94784a513.2544 513.2544 0 0 0 166.00064-110.9248 513.23904 513.23904 0 0 0 110.91968-166.00064 513.28 513.28 0 0 0 38.95296-195.8144c0-66.98496-13.31712-133.9392-38.95296-195.82464z m-499.8656 250.50112c21.57056 248.81664 91.84256 241.37216 122.04032 61.42464l48.69632-11.79136c-53.62176 345.62048-269.3632 318.93504-294.64064-42.1888-248.41216-6.83008-284.77952-197.9392 17.25952-318.31552l10.47552 26.0608c-157.7984 67.6352-170.12224 162.57024-25.8816 179.32288 38.21568-257.50528 166.43072-317.07136 252.7232-149.53984l-25.2672 7.44448c-53.01248-41.56928-86.91712 29.16352-100.48 137.12896 202.18368-50.87744 308.20352-178.69312 157.184-209.1008l-8.6272-37.23264c328.54528 28.544 231.76704 270.53568-153.48736 356.7872z" fill="#1296db" p-id="2403"></path></svg>